<svg xmlns="http://www.w3.org/2000/svg" viewBox="0 0 2139 1050" width="2139" height="1050">
  <title>Hybro — dark</title>
  <desc>Hybro wordmark, "Hybro" casing. Hand-drawn geometry (no font). Colours: lime #CDFF57, dark #0E0F11, orange #FF5B23.</desc>
  <rect id="background" width="2139" height="1050" fill="#0E0F11"/>
  <g id="wordmark">
    <path id="H" fill="#CDFF57" fill-rule="evenodd" d="M333.08,200.00 L425.08,200.00 L352.00,720.00 L260.00,720.00 Z M541.08,200.00 L633.08,200.00 L560.00,720.00 L468.00,720.00 Z"/>
    <polygon id="H-bar" fill="#FF5B23" points="394.01,414.00 512.01,414.00 499.08,506.00 381.08,506.00"/>
    <path id="y" fill="#CDFF57" fill-rule="evenodd" d="M657.41,340.00 L749.41,340.00 L772.39,517.30 L849.41,340.00 L941.41,340.00 L719.73,850.00 L627.73,850.00 L701.47,680.40 Z"/>
    <path id="b" fill="#CDFF57" fill-rule="evenodd" d="M1001.08,200.00 L1093.08,200.00 L1073.41,340.00 L1221.41,340.00 L1259.22,384.00 L1218.18,676.00 L1168.00,720.00 L928.00,720.00 Z M1060.76,430.00 L1148.76,430.00 L1148.48,432.00 L1158.79,444.00 L1134.62,616.00 L1120.93,628.00 L1032.93,628.00 Z"/>
    <polygon id="b-bar" fill="#FF5B23" points="1072.41,340.00 1221.41,340.00 1259.22,384.00 1252.48,432.00 1059.48,432.00"/>
    <path id="r" fill="#CDFF57" fill-rule="evenodd" d="M1321.41,340.00 L1521.41,340.00 L1555.78,380.00 L1548.48,432.00 L1400.48,432.00 L1360.00,720.00 L1268.00,720.00 Z"/>
    <path id="o" fill="#CDFF57" fill-rule="evenodd" d="M1645.41,340.00 L1841.41,340.00 L1879.22,384.00 L1838.18,676.00 L1788.00,720.00 L1592.00,720.00 L1554.18,676.00 L1595.22,384.00 Z M1692.48,432.00 L1768.48,432.00 L1778.79,444.00 L1754.62,616.00 L1740.93,628.00 L1664.93,628.00 L1654.62,616.00 L1678.79,444.00 Z"/>
  </g>
</svg>
